<?xml version="1.0" standalone="no"?>
<!DOCTYPE svg PUBLIC "-//W3C//DTD SVG 20010904//EN"
 "http://www.w3.org/TR/2001/REC-SVG-20010904/DTD/svg10.dtd">
<svg version="1.0" xmlns="http://www.w3.org/2000/svg"
 width="1000.000000pt" height="1000.000000pt" viewBox="0 0 1000.000000 1000.000000"
 preserveAspectRatio="xMidYMid meet">
<metadata>
Created by potrace 1.11, written by Peter Selinger 2001-2013
</metadata>
<g transform="translate(0.000000,1000.000000) scale(0.100000,-0.100000)"
fill="#000000" stroke="none">
<path d="M5073 9636 c15 -20 6 -23 -67 -22 -47 1 -72 5 -68 11 3 6 -1 5 -9 -2
-8 -6 -30 -12 -49 -12 -155 -5 -186 -7 -192 -16 -5 -6 -8 -5 -8 3 0 8 -5 10
-12 5 -20 -12 -71 -12 -86 0 -10 8 -12 7 -10 -3 4 -17 -22 -20 -41 -6 -11 8
-13 8 -8 0 4 -8 -4 -13 -23 -16 -17 -3 -30 -1 -30 4 0 4 -10 3 -21 -4 -18 -11
-23 -11 -27 1 -3 9 -7 10 -11 2 -4 -6 -16 -12 -26 -14 -11 -1 -26 -7 -34 -11
-10 -7 -12 -6 -6 4 6 10 4 11 -6 4 -16 -10 -33 -14 -71 -16 -16 0 -28 -4 -28
-7 0 -3 -15 -7 -33 -9 -43 -3 -60 -6 -72 -13 -5 -4 -22 -6 -37 -5 -16 1 -28
-2 -28 -6 0 -4 -8 -7 -17 -7 -18 0 -58 -8 -58 -12 0 -3 -49 -11 -82 -12 -17
-1 -29 -5 -26 -9 2 -5 1 -8 -4 -9 -8 0 -38 -6 -65 -11 -7 -2 -15 -5 -18 -8 -4
-5 -123 -42 -170 -54 -8 -2 -34 -12 -57 -21 -24 -9 -50 -15 -58 -11 -8 3 -14
0 -12 -7 1 -7 -8 -11 -20 -11 -13 1 -20 -2 -18 -7 6 -9 -34 -24 -42 -15 -3 3
-12 -1 -20 -9 -17 -18 -47 -20 -37 -3 4 7 3 8 -5 4 -6 -4 -9 -11 -6 -16 9 -15
-37 -23 -47 -9 -8 11 -9 10 -5 -3 5 -15 -8 -27 -39 -33 -6 -2 -28 -11 -48 -20
-31 -15 -39 -15 -54 -4 -15 12 -16 12 -4 -2 11 -14 6 -20 -38 -41 -35 -18 -52
-22 -60 -14 -8 8 -11 7 -8 -2 4 -16 -160 -104 -175 -95 -6 3 -7 1 -4 -4 8 -12
-20 -26 -34 -17 -5 3 -9 -2 -9 -11 0 -11 -5 -15 -16 -11 -8 3 -12 2 -9 -4 3
-6 -1 -10 -9 -10 -9 0 -16 -4 -16 -10 0 -5 -6 -10 -14 -10 -8 0 -22 -7 -31
-16 -9 -9 -19 -14 -22 -10 -3 3 -13 -3 -20 -14 -8 -11 -18 -18 -23 -15 -4 3
-10 -2 -14 -10 -3 -8 -10 -15 -17 -15 -6 0 -30 -14 -54 -31 -26 -19 -48 -28
-56 -24 -8 5 -10 4 -5 -4 4 -6 0 -14 -10 -18 -10 -3 -25 -13 -33 -20 -49 -43
-131 -103 -140 -103 -5 0 -15 -8 -20 -17 -6 -10 -11 -14 -11 -9 0 4 -9 -2 -20
-15 -10 -13 -19 -21 -20 -17 0 4 -14 -6 -31 -23 -17 -17 -37 -28 -45 -25 -8 3
-11 0 -7 -10 4 -10 -2 -17 -15 -21 -11 -3 -23 -11 -26 -19 -3 -8 -13 -14 -22
-14 -10 0 -14 -3 -11 -7 8 -7 -34 -39 -46 -35 -4 1 -6 -1 -5 -5 3 -8 -68 -83
-77 -83 -2 0 -36 -33 -76 -72 -39 -40 -75 -72 -80 -70 -5 1 -8 -2 -7 -7 2 -5
-20 -32 -49 -60 -29 -28 -50 -51 -46 -51 3 0 -12 -17 -33 -38 -22 -21 -52 -55
-67 -75 -16 -21 -33 -35 -38 -31 -6 3 -9 0 -7 -8 2 -8 -10 -29 -27 -47 -66
-71 -75 -82 -77 -89 -2 -4 -7 -6 -11 -4 -5 1 -6 -2 -3 -7 4 -5 -1 -16 -9 -24
-8 -9 -15 -20 -15 -26 0 -6 -5 -11 -10 -11 -6 0 -16 -11 -22 -25 -6 -14 -17
-24 -24 -21 -8 3 -10 -3 -6 -16 4 -17 2 -20 -11 -15 -11 4 -14 2 -11 -8 3 -7
-4 -23 -15 -34 -12 -12 -22 -24 -23 -28 -2 -5 -7 -7 -11 -5 -5 1 -6 -1 -3 -6
6 -10 -28 -64 -36 -56 -3 3 -5 -3 -4 -13 0 -10 -4 -17 -11 -16 -7 2 -10 -4 -7
-12 4 -8 1 -15 -5 -15 -6 0 -11 -4 -11 -9 0 -5 -22 -45 -48 -88 -26 -43 -56
-95 -65 -115 -10 -21 -22 -38 -28 -38 -6 0 -7 -4 -4 -10 3 -5 1 -10 -5 -10 -6
0 -8 -4 -5 -10 3 -5 1 -10 -5 -10 -6 0 -8 -4 -5 -10 3 -5 2 -10 -4 -10 -5 0
-12 -13 -16 -30 -4 -18 -13 -30 -23 -31 -10 0 -12 -3 -5 -6 9 -3 8 -11 -5 -31
-9 -15 -19 -29 -22 -32 -3 -3 -6 -11 -8 -19 -2 -8 -17 -44 -34 -80 -16 -36
-36 -79 -43 -96 -7 -16 -18 -43 -25 -60 -15 -32 -17 -39 -19 -56 0 -5 -6 -7
-13 -3 -6 4 -8 3 -4 -4 3 -6 1 -23 -5 -39 -19 -47 -27 -67 -37 -98 -6 -16 -14
-39 -18 -50 -10 -27 -11 -32 -13 -51 0 -8 -5 -13 -10 -10 -4 3 -8 -2 -8 -12 1
-29 -26 -106 -43 -120 -9 -8 -9 -11 -1 -6 18 9 5 -54 -18 -80 -9 -11 -11 -17
-5 -13 7 4 4 -20 -8 -61 -10 -37 -20 -77 -23 -90 -2 -12 -6 -30 -9 -40 -3 -9
-7 -28 -10 -42 -3 -14 -7 -34 -9 -45 -9 -40 -19 -105 -17 -111 1 -4 -4 -11
-12 -15 -10 -7 -10 -9 0 -9 10 0 10 -5 2 -20 -6 -11 -10 -26 -9 -33 4 -31 -2
-48 -13 -41 -10 6 -10 5 -1 -8 7 -8 10 -18 6 -21 -3 -4 -7 -21 -8 -39 -6 -80
-10 -103 -20 -110 -6 -5 -5 -8 3 -8 7 0 11 -4 7 -9 -3 -5 -8 -42 -11 -83 -8
-91 -8 -91 -17 -105 -4 -6 -3 -14 2 -17 8 -5 8 -23 1 -46 -1 -3 -1 -32 0 -64
1 -39 -3 -62 -12 -67 -10 -7 -10 -9 0 -9 6 0 12 -7 12 -15 0 -8 -6 -15 -12
-15 -10 0 -10 -2 -2 -8 12 -7 13 -79 1 -98 -3 -6 -3 -14 1 -18 3 -4 7 -31 8
-59 8 -196 14 -299 19 -307 3 -6 0 -10 -7 -10 -9 0 -9 -3 -2 -8 14 -9 26 -54
12 -45 -7 4 -8 1 -2 -8 14 -23 17 -62 3 -54 -6 4 -5 -3 4 -16 8 -13 13 -39 13
-56 -1 -18 1 -33 4 -33 3 0 6 -8 6 -17 1 -21 12 -98 19 -133 3 -14 8 -38 10
-55 2 -16 8 -47 13 -67 5 -20 7 -39 4 -42 -3 -4 -1 -6 4 -6 5 0 11 -12 12 -28
3 -35 7 -53 17 -75 4 -9 5 -26 2 -37 -3 -13 -1 -18 6 -13 6 4 8 0 4 -10 -3 -9
-2 -17 3 -19 5 -2 11 -19 14 -40 2 -20 9 -45 15 -57 7 -12 8 -21 4 -21 -4 0
-2 -5 5 -12 15 -15 16 -32 2 -23 -6 4 -2 -9 9 -29 19 -33 43 -108 44 -133 0
-7 5 -13 10 -13 5 0 7 -9 4 -20 -3 -11 -2 -18 2 -15 11 6 33 -73 25 -88 -4 -6
-4 -9 1 -5 8 7 35 -35 35 -54 0 -5 8 -26 19 -48 14 -28 16 -41 7 -50 -8 -8 -6
-9 8 -4 15 6 18 4 13 -9 -3 -8 -3 -17 1 -19 10 -4 58 -110 54 -120 -1 -4 3 -8
9 -8 8 0 7 -5 -1 -15 -11 -13 -10 -14 5 -9 12 5 16 4 12 -3 -4 -6 -3 -13 2
-15 5 -1 11 -12 13 -23 1 -11 11 -29 20 -39 10 -10 15 -23 12 -28 -3 -4 0 -8
6 -8 6 0 8 -4 5 -10 -3 -5 -1 -10 5 -10 7 0 9 -7 6 -15 -3 -9 0 -18 7 -21 8
-3 20 -20 27 -39 8 -19 17 -35 22 -35 4 0 8 -6 8 -14 0 -8 7 -22 16 -30 8 -9
12 -16 8 -16 -4 0 1 -9 11 -20 10 -11 15 -20 11 -20 -4 0 -1 -7 8 -15 8 -9 13
-27 11 -43 -2 -15 -4 -33 -4 -40 -1 -7 -6 -10 -13 -6 -7 4 -8 3 -4 -4 4 -7 4
-18 -1 -24 -8 -13 -13 -33 -15 -55 -1 -7 -5 -13 -10 -13 -5 0 -6 -4 -3 -10 9
-15 -14 -52 -28 -44 -9 5 -9 4 0 -6 9 -10 9 -18 1 -34 -6 -12 -10 -21 -8 -21
4 0 -18 -72 -30 -100 -5 -11 -19 -51 -31 -90 -12 -38 -25 -72 -28 -75 -4 -3
-7 -14 -7 -25 0 -11 -5 -19 -12 -18 -6 2 -9 -4 -6 -12 3 -8 -1 -28 -9 -45 -9
-17 -11 -28 -6 -25 17 11 9 -4 -13 -26 -13 -12 -17 -18 -9 -14 11 6 13 4 8 -9
-4 -10 -7 -22 -7 -27 0 -6 -5 -7 -12 -3 -6 4 -8 3 -5 -3 6 -9 -18 -98 -40
-153 -3 -8 -7 -21 -9 -29 -1 -8 -9 -18 -16 -22 -11 -7 -11 -9 0 -9 7 0 11 -4
7 -10 -3 -5 -11 -8 -18 -6 -7 1 -9 1 -4 -1 11 -7 8 -33 -4 -33 -5 0 -8 -4 -5
-8 7 -11 -26 -115 -39 -124 -5 -4 -7 -8 -2 -8 4 0 1 -16 -7 -35 -8 -19 -12
-35 -8 -35 4 0 2 -4 -4 -8 -7 -4 -14 -18 -15 -32 -2 -14 -11 -31 -19 -38 -8
-8 -9 -11 -2 -7 15 8 16 -7 0 -23 -7 -7 -8 -12 -3 -12 6 0 4 -4 -4 -9 -8 -5
-16 -26 -18 -47 -2 -21 -9 -42 -16 -46 -7 -4 -9 -8 -4 -8 4 0 1 -15 -7 -34 -8
-19 -12 -37 -8 -40 3 -3 0 -6 -7 -6 -7 0 -9 -5 -6 -10 3 -6 2 -10 -2 -10 -5 0
-10 -12 -11 -27 -1 -15 -5 -29 -10 -32 -4 -3 -7 -10 -8 -16 -2 -29 -18 -75
-25 -75 -5 0 -5 -7 -2 -17 4 -9 2 -14 -3 -11 -5 4 -10 -8 -11 -24 -1 -17 -8
-36 -14 -44 -6 -8 -8 -14 -4 -14 4 0 2 -6 -4 -13 -6 -8 -8 -17 -4 -20 3 -4 1
-7 -6 -7 -7 0 -10 -4 -7 -9 4 -5 2 -20 -3 -33 -5 -12 -9 -27 -9 -31 0 -5 -9
-15 -19 -24 -10 -8 -12 -11 -4 -7 11 5 13 3 7 -11 -4 -11 -14 -40 -23 -67 -8
-26 -18 -46 -22 -43 -4 2 -7 -6 -6 -18 1 -12 -5 -31 -14 -41 -13 -16 -13 -18
-1 -11 12 7 13 6 3 -7 -7 -8 -10 -18 -6 -21 3 -4 -2 -7 -13 -7 -16 0 -17 -2
-4 -10 8 -5 10 -10 3 -10 -6 0 -9 -9 -5 -22 4 -17 2 -20 -13 -14 -14 5 -16 4
-6 -8 8 -9 9 -21 2 -37 -11 -29 -19 -52 -18 -59 0 -3 -6 -16 -13 -30 -8 -14
-15 -33 -17 -44 -3 -15 1 -17 19 -12 13 4 31 9 41 11 9 2 21 6 26 9 5 4 12 0
14 -6 3 -8 6 -5 6 6 1 14 7 17 30 14 17 -2 28 -1 26 3 -6 9 24 21 36 13 5 -3
9 0 9 7 0 8 4 8 15 -1 13 -11 14 -10 10 1 -5 14 3 17 53 21 6 1 12 5 12 9 0 7
55 20 75 18 6 -1 8 -6 7 -12 -2 -7 0 -8 5 -4 4 5 8 13 8 19 0 6 23 19 52 28
29 9 50 14 48 9 -7 -10 22 -5 32 6 4 4 2 5 -6 0 -9 -5 -12 -4 -8 2 4 6 16 13
27 16 12 3 18 1 14 -5 -4 -6 4 -3 18 6 13 8 35 18 48 20 14 2 26 5 28 7 1 1 7
3 12 4 6 1 13 4 18 5 4 1 10 2 15 1 4 0 7 3 7 8 0 4 10 8 22 7 13 -1 25 1 28
5 3 4 14 9 25 11 11 1 23 7 26 11 4 5 22 9 42 10 20 0 34 4 32 8 -4 6 54 25
90 29 6 1 16 7 24 13 12 10 13 9 6 -3 -5 -9 0 -8 13 4 12 11 22 16 22 11 0 -4
8 -1 17 6 11 10 14 10 9 1 -4 -6 10 -2 30 10 27 16 39 19 42 10 3 -10 7 -9 16
3 7 10 28 17 53 18 23 1 40 7 40 12 -1 6 10 10 25 10 14 -1 24 3 22 7 -5 8 53
25 68 20 5 -1 8 2 8 8 0 5 5 10 11 10 5 0 7 -6 4 -12 -4 -7 0 -5 8 4 8 10 16
15 19 13 3 -3 26 4 52 15 29 12 44 15 40 7 -4 -6 2 -4 14 7 12 10 28 16 37 13
8 -4 15 -2 15 3 0 6 7 10 15 10 8 0 24 6 35 12 16 10 24 10 43 -1 18 -11 20
-11 9 0 -10 11 16 23 150 66 90 29 170 55 178 57 8 1 23 6 33 11 9 4 24 4 33
1 8 -3 12 -2 9 4 -3 6 3 10 14 10 11 0 23 5 26 10 4 6 10 8 15 5 5 -3 11 -1
14 4 4 5 14 8 24 7 9 -2 20 1 23 6 3 5 16 10 27 11 12 1 22 5 22 10 0 4 5 5
10 2 6 -4 7 -11 4 -17 -4 -7 -2 -8 5 -4 6 4 9 11 6 16 -3 4 2 11 11 14 10 4
13 2 8 -7 -4 -6 2 -4 14 7 18 15 24 17 37 6 13 -11 14 -10 9 6 -4 10 -4 16 1
12 4 -4 15 -2 23 5 13 10 14 9 7 -3 -5 -9 0 -8 13 4 20 17 27 15 23 -7 -1 -5
3 -6 9 -2 6 3 8 10 5 15 -3 4 2 11 11 14 23 9 26 8 19 -6 -4 -7 0 -6 7 4 8 9
23 17 33 19 24 4 175 -69 175 -84 0 -6 3 -7 7 -4 3 4 17 0 30 -8 13 -9 23 -12
23 -9 0 4 9 -1 21 -12 12 -10 22 -18 23 -16 2 5 66 -20 66 -27 0 -4 10 -8 22
-8 13 -1 24 -7 26 -13 2 -5 7 -8 12 -5 4 3 24 -7 45 -20 20 -14 34 -21 30 -15
-10 16 12 12 29 -6 9 -8 16 -13 16 -9 0 3 13 -1 30 -10 16 -8 33 -16 37 -16 5
-1 18 -5 31 -10 13 -5 28 -9 33 -9 6 0 7 -5 3 -12 -4 -7 -3 -8 5 -4 10 7 79
-12 91 -24 6 -6 30 -12 48 -13 6 0 12 -3 12 -6 0 -4 12 -8 26 -9 15 -1 34 -8
42 -15 8 -6 17 -11 19 -9 1 1 12 2 24 2 13 0 18 -4 13 -12 -4 -6 -3 -8 3 -5 5
3 27 1 49 -4 21 -6 45 -11 52 -11 6 -1 12 -5 12 -10 0 -4 3 -7 8 -7 4 1 9 1
12 0 3 -1 23 -4 44 -6 22 -3 43 -10 48 -17 6 -11 8 -11 8 0 0 9 5 10 19 2 11
-5 31 -11 45 -12 15 -1 26 -5 26 -8 0 -3 18 -6 40 -6 22 -1 47 -5 57 -9 19 -8
57 -15 86 -16 11 0 15 -5 10 -12 -5 -9 -2 -8 9 0 8 7 17 11 19 9 2 -2 24 -7
49 -11 25 -3 56 -8 70 -10 60 -9 156 -19 163 -17 4 1 7 -3 7 -9 0 -8 5 -7 16
2 9 7 18 9 22 3 6 -8 45 -11 202 -13 33 -1 41 -4 30 -11 -9 -6 -10 -10 -3 -10
6 0 15 5 18 10 3 6 13 10 21 10 8 0 12 -5 9 -11 -4 -6 3 -5 14 3 18 11 23 11
31 -2 5 -8 10 -10 10 -4 0 6 11 12 25 12 16 0 22 -5 18 -12 -5 -8 -3 -8 8 0
19 14 61 16 53 2 -5 -7 -2 -8 7 -2 22 14 111 15 128 1 11 -9 13 -9 8 0 -4 6
-3 14 3 18 5 3 10 1 10 -5 0 -6 5 -8 11 -5 5 4 43 8 84 10 40 1 78 6 84 9 6 4
11 2 11 -4 0 -7 6 -8 18 -2 17 9 42 12 139 15 28 1 49 5 47 8 -3 6 53 12 108
12 15 0 25 4 21 10 -3 5 11 7 36 4 22 -2 38 0 35 4 -3 5 1 9 8 10 7 0 27 3 43
5 17 3 37 6 45 7 8 2 20 6 27 10 6 4 15 2 19 -4 5 -8 8 -8 13 0 4 6 21 13 38
14 16 2 35 7 41 11 6 3 13 2 17 -4 3 -5 12 -10 18 -10 7 0 7 4 -2 9 -12 8 -8
11 15 16 16 4 43 11 60 16 41 13 74 20 99 22 11 1 23 5 26 10 3 4 20 9 37 10
18 1 32 6 32 11 0 4 6 6 14 3 8 -3 16 -2 18 4 2 5 16 12 32 15 16 3 37 9 46
14 10 5 20 6 24 3 3 -3 6 0 6 7 0 7 3 11 6 8 3 -4 21 0 40 8 19 8 34 11 34 7
0 -5 4 -2 8 4 4 7 17 14 29 16 12 1 28 9 36 15 12 10 17 10 23 1 5 -9 10 -8
18 3 14 19 85 50 97 42 5 -3 9 -1 9 4 0 17 32 23 49 10 13 -10 14 -10 4 2 -10
11 -5 17 30 33 23 11 48 20 55 20 6 0 12 4 12 9 0 5 5 6 10 3 6 -3 10 0 10 7
0 9 3 9 10 -2 8 -13 10 -13 10 1 0 15 16 24 44 27 5 0 12 6 17 13 6 10 11 10
26 -2 16 -13 17 -13 4 4 -12 16 -9 19 15 16 4 0 10 3 13 8 3 5 21 17 40 26 28
14 37 15 50 4 14 -11 15 -10 1 7 -14 18 -13 19 2 13 11 -4 17 -2 15 5 -1 7 4
13 11 14 6 1 15 3 20 4 4 1 10 2 15 1 4 0 6 5 5 11 -2 8 6 13 19 12 12 0 20 2
19 5 -2 3 2 12 10 19 8 7 14 10 14 7 0 -4 13 3 30 15 16 12 38 22 49 23 12 1
17 6 13 17 -3 8 -2 12 3 8 4 -4 14 0 22 8 8 8 19 11 25 8 6 -4 8 -2 4 4 -3 6
2 13 13 17 11 3 36 19 56 35 21 16 41 27 46 24 5 -3 9 2 9 11 0 9 5 13 10 10
6 -3 13 1 16 9 3 9 10 13 15 10 5 -3 12 2 15 11 4 9 13 14 20 11 8 -3 13 0 11
7 -1 7 4 11 11 9 6 -1 12 5 12 15 0 9 3 13 7 9 4 -3 22 8 41 26 19 18 32 26
28 18 -4 -8 2 -2 14 13 16 20 28 26 44 22 11 -2 15 -2 8 1 -9 4 -4 15 19 35
17 15 36 26 40 23 5 -3 9 2 9 11 0 12 6 15 20 10 12 -4 20 -2 20 5 0 6 -4 8
-10 5 -6 -3 -10 -2 -10 2 0 13 40 34 51 28 5 -4 8 -1 7 7 -2 7 3 12 10 10 8
-1 11 2 7 7 -3 6 6 21 21 33 15 13 39 35 54 51 15 15 30 27 34 27 11 0 45 38
39 44 -4 3 -2 6 4 6 11 0 34 22 116 109 21 22 41 41 45 42 4 0 6 5 4 10 -2 9
11 13 38 10 13 -2 13 -1 0 8 -12 9 -11 14 10 33 14 13 28 22 33 20 5 -1 6 1 3
6 -2 4 11 28 30 51 19 24 34 40 34 35 0 -5 9 6 20 24 11 18 25 30 30 27 5 -3
8 0 5 7 -3 7 14 33 38 58 24 25 46 53 50 63 4 10 12 15 17 12 6 -4 9 -1 8 6
-2 7 2 13 9 14 6 0 15 4 20 9 4 5 3 6 -4 2 -6 -3 -14 -2 -17 3 -8 13 21 34 35
25 8 -5 9 -3 4 6 -5 8 -1 18 10 27 11 7 15 13 11 13 -12 0 24 54 67 101 9 10
14 19 11 19 -3 0 2 7 10 16 9 8 16 22 16 31 0 10 6 13 16 9 8 -3 13 -2 10 3
-9 14 24 71 42 71 15 0 15 2 2 10 -14 9 -13 11 9 14 5 0 13 5 18 10 5 5 3 6
-4 2 -7 -4 -13 -3 -13 1 0 11 31 56 44 65 6 4 7 8 3 8 -5 0 1 13 12 29 11 15
18 31 14 35 -3 3 -2 6 4 6 5 0 15 12 21 26 8 16 17 22 25 18 9 -6 8 -3 -1 8
-11 14 -10 18 6 27 11 6 23 7 27 3 5 -4 5 -1 1 6 -4 7 -12 10 -17 7 -5 -4 -9
-2 -9 4 0 5 8 15 18 20 9 6 14 11 9 11 -4 0 0 14 8 30 9 17 20 28 25 25 5 -3
12 -1 15 5 4 6 3 10 -2 9 -22 -4 -25 3 -9 20 10 11 19 28 21 38 2 10 4 20 4
22 1 2 9 -3 19 -10 15 -13 16 -12 3 4 -12 15 -12 20 5 33 10 9 13 13 7 9 -7
-3 -13 -1 -13 4 0 6 5 11 10 11 6 0 9 6 8 13 -2 6 2 11 9 10 7 -2 10 3 7 11
-3 7 2 31 12 52 9 22 18 44 20 49 9 35 36 85 47 85 8 0 7 4 -3 10 -12 8 -12
10 5 11 11 0 15 3 9 5 -12 5 -7 44 5 44 4 0 8 10 8 22 1 13 7 24 12 26 5 2 7
10 4 18 -3 8 0 14 6 14 6 0 8 6 5 14 -3 8 0 17 5 21 6 3 9 11 6 16 -4 5 -1 9
6 9 7 0 9 3 6 7 -4 3 -1 13 6 21 10 13 9 14 -3 7 -12 -7 -13 -6 -4 6 12 15 39
100 36 112 -1 4 2 7 8 7 5 0 6 7 3 17 -5 11 -3 14 6 8 10 -6 11 -2 6 15 -4 12
-3 20 1 17 5 -3 10 7 11 21 3 47 10 67 24 64 10 -3 10 0 0 12 -7 9 -11 21 -8
28 2 7 5 18 7 23 1 6 6 17 11 26 4 9 9 33 11 53 1 20 6 36 11 36 4 0 5 9 2 20
-3 11 -2 20 2 20 5 0 9 10 10 22 1 50 3 59 14 52 8 -5 9 -2 1 12 -8 14 -6 21
6 32 10 7 11 11 5 7 -9 -4 -13 1 -13 14 0 12 4 21 10 21 5 0 7 7 3 15 -3 9 3
23 13 31 18 15 18 15 1 10 -15 -5 -17 -2 -11 17 4 12 12 25 18 29 7 5 7 8 1 8
-6 0 -11 9 -11 19 0 11 5 17 10 14 5 -4 7 1 3 10 -4 10 -1 17 6 17 8 0 8 3 -2
9 -7 5 -10 14 -7 20 4 6 12 9 17 5 6 -3 5 3 -2 14 -13 21 -5 57 10 47 5 -3 12
-1 16 4 3 6 -3 8 -14 6 -16 -3 -18 1 -14 33 3 20 12 43 21 51 16 13 16 13 0 8
-12 -4 -18 -1 -18 9 0 8 5 12 10 9 12 -8 13 -3 0 29 -6 18 -6 26 1 26 6 0 7 5
4 10 -4 6 -1 18 7 27 8 11 8 14 1 10 -9 -6 -11 9 -9 55 3 50 7 63 22 69 16 7
15 8 -6 8 -18 1 -21 4 -11 10 11 7 11 9 0 14 -8 3 -9 6 -3 6 8 1 9 12 4 36 -6
28 -4 37 9 45 10 6 11 9 3 10 -7 0 -11 4 -8 9 4 5 0 12 -6 14 -8 3 -9 6 -2 6
8 1 9 14 4 41 -6 31 -4 40 7 40 8 0 11 -5 7 -12 -5 -7 -3 -8 6 -3 10 6 9 11
-6 22 -10 8 -17 20 -16 26 9 29 10 47 4 47 -4 0 -8 12 -9 27 -1 26 0 27 13 8
8 -10 14 -14 14 -8 0 6 -7 16 -15 23 -17 14 -21 35 -5 25 6 -3 10 -1 10 4 0 6
-4 11 -8 11 -4 0 -9 19 -11 42 -1 23 -4 44 -6 47 -3 2 3 10 13 18 13 10 13 13
2 11 -11 -2 -15 7 -14 37 0 22 -5 43 -10 47 -7 5 -5 8 4 8 13 0 13 1 0 10 -12
8 -13 11 -1 19 7 5 9 10 4 12 -6 2 -13 25 -16 51 -6 42 -4 47 11 42 12 -4 11
-2 -3 8 -12 8 -20 23 -20 38 1 14 -4 31 -9 39 -9 12 -7 13 8 7 19 -7 19 -6 1
14 -14 15 -15 20 -4 20 11 0 11 2 1 8 -7 5 -15 22 -18 38 -3 16 -7 30 -9 33
-3 2 3 10 13 18 9 8 12 12 5 9 -13 -7 -37 57 -31 82 3 10 -1 23 -9 30 -18 18
-18 38 1 23 10 -8 16 -9 21 -1 4 6 1 9 -7 8 -7 -2 -12 3 -10 10 1 8 -2 11 -7
8 -5 -3 -11 3 -14 14 -3 11 0 20 6 20 7 0 5 5 -3 10 -8 5 -16 17 -17 27 -3 30
-8 47 -17 61 -4 7 -2 20 6 29 9 12 9 15 1 9 -7 -4 -13 -4 -14 1 0 4 -3 17 -6
28 -3 11 -6 30 -7 42 0 11 -4 19 -7 17 -13 -8 -17 24 -6 36 8 9 9 11 1 7 -7
-4 -14 2 -17 13 -3 13 -1 18 6 14 7 -3 5 0 -4 8 -9 7 -15 25 -15 40 1 14 -1
25 -5 22 -9 -5 -20 25 -13 37 3 5 1 9 -4 9 -9 0 -11 8 -15 54 -1 13 -5 22 -9
20 -8 -5 -28 52 -21 60 4 3 1 6 -7 6 -10 0 -10 3 0 16 8 8 9 14 4 13 -23 -4
-26 2 -8 16 18 14 18 14 -3 8 -14 -3 -23 -1 -23 6 0 7 4 10 9 6 5 -3 13 -1 16
5 4 6 3 10 -2 9 -31 -5 -52 33 -32 57 7 8 6 15 -2 20 -8 4 -9 3 -5 -4 4 -7 2
-12 -3 -12 -6 0 -18 16 -26 36 -18 44 -19 58 -3 48 7 -4 8 -3 4 4 -4 7 -14 12
-22 12 -8 0 -14 5 -14 11 0 5 6 7 13 4 6 -4 2 2 -10 13 -13 11 -23 25 -23 32
0 6 -7 25 -16 42 -9 16 -11 27 -6 24 6 -4 14 -2 17 4 4 6 3 10 -2 9 -21 -4
-33 2 -33 17 0 9 5 12 12 8 7 -4 8 -3 4 5 -4 6 -11 9 -16 6 -5 -3 -14 4 -20
15 -6 11 -7 20 -3 20 4 0 4 4 -2 8 -15 10 -58 92 -49 92 4 0 -1 7 -12 16 -10
8 -12 13 -4 9 8 -4 4 3 -9 14 -13 12 -21 21 -17 21 3 0 -6 17 -20 37 -13 20
-22 43 -19 50 2 8 0 11 -5 8 -6 -4 -19 12 -29 34 -10 23 -21 38 -25 33 -4 -4
-7 -2 -5 3 4 15 -23 65 -35 65 -6 0 -4 5 4 10 13 8 12 10 -3 10 -10 0 -15 5
-12 10 3 6 1 10 -6 10 -7 0 -9 3 -6 7 4 3 -2 13 -13 20 -15 10 -19 21 -15 36
4 13 3 17 -2 11 -6 -9 -11 -8 -21 2 -7 8 -9 14 -5 14 4 0 0 6 -9 13 -9 8 -18
20 -20 27 -2 8 -12 22 -23 32 -17 15 -18 19 -5 29 13 9 13 10 -2 6 -18 -6 -48
22 -48 45 0 8 -11 21 -25 28 -14 7 -25 18 -25 24 0 6 -9 22 -19 35 -10 14 -18
30 -17 35 2 6 1 8 -1 4 -9 -16 -24 -7 -18 11 4 14 1 19 -12 17 -12 0 -19 7
-21 22 -2 12 -8 20 -13 17 -5 -4 -9 1 -9 10 0 10 -5 13 -12 9 -8 -5 -9 -2 -5
10 4 9 3 15 -2 11 -12 -7 -53 44 -45 56 3 5 0 8 -8 7 -7 -2 -12 3 -11 9 2 7
-3 12 -10 10 -6 -1 -11 4 -10 11 2 6 -2 12 -9 12 -18 0 -79 71 -71 83 3 5 2 7
-4 4 -11 -7 -53 28 -53 43 0 5 -9 12 -20 15 -12 4 -20 15 -20 27 0 12 -3 18
-7 15 -9 -9 -34 13 -27 24 3 5 -2 6 -10 3 -11 -4 -16 0 -16 10 0 9 -4 16 -8
16 -5 0 -33 23 -62 50 -29 28 -58 50 -63 50 -6 0 -8 3 -4 6 8 8 -16 33 -26 27
-4 -2 -10 3 -13 11 -3 9 -13 16 -21 16 -8 0 -12 4 -9 9 3 5 -1 12 -10 15 -8 3
-12 11 -8 17 4 8 3 9 -4 5 -15 -9 -90 43 -98 67 -3 10 -8 16 -11 13 -8 -8 -34
15 -28 24 3 5 -2 7 -12 6 -9 -2 -31 11 -49 28 -53 49 -61 55 -68 49 -3 -4 -6
-1 -6 4 0 6 6 14 13 17 6 3 2 3 -10 0 -16 -4 -31 3 -50 22 -16 16 -29 27 -30
26 -10 -8 -21 1 -26 19 -4 13 -10 18 -18 13 -7 -4 -18 1 -26 12 -8 10 -15 17
-16 14 -3 -5 -111 58 -132 77 -7 7 -15 9 -19 6 -3 -4 -6 -1 -6 5 0 7 -7 12
-15 12 -9 0 -28 12 -42 28 -14 15 -19 18 -12 8 13 -18 13 -18 -8 -6 -18 12
-20 17 -10 29 10 12 9 13 -11 2 -18 -9 -23 -9 -27 1 -3 8 -15 15 -27 15 -12 1
-24 6 -27 11 -5 8 -39 23 -51 23 -3 0 -12 6 -20 13 -8 6 -27 18 -42 25 -15 8
-25 19 -21 24 3 6 1 7 -5 3 -6 -4 -32 2 -56 14 -25 11 -50 20 -55 20 -6 0 -11
5 -11 10 0 6 -9 10 -21 10 -13 0 -18 4 -13 12 5 7 3 8 -5 3 -8 -4 -25 2 -43
15 -17 13 -27 17 -23 11 5 -9 2 -10 -11 -2 -11 5 -38 18 -61 27 -23 10 -40 21
-38 24 2 4 -6 5 -19 3 -13 -3 -30 2 -39 11 -11 12 -17 13 -20 3 -4 -9 -6 -9
-6 1 -1 6 -7 12 -15 12 -7 0 -21 10 -30 23 -10 14 -14 16 -10 5 6 -18 -10 -25
-20 -9 -3 5 -22 12 -41 15 -20 4 -33 11 -30 16 3 4 -4 6 -15 3 -11 -3 -20 -1
-20 4 0 5 -7 10 -15 11 -8 1 -22 3 -30 4 -8 1 -15 4 -15 7 0 3 -10 7 -23 8
-45 4 -62 10 -62 21 0 6 -4 14 -9 19 -5 5 -6 2 -1 -6 8 -14 2 -14 -80 3 -60
13 -69 17 -54 27 9 6 10 9 2 9 -6 0 -14 -4 -17 -9 -3 -4 -17 -6 -31 -3 -23 4
-30 13 -26 35 1 5 -3 6 -9 2 -6 -3 -8 -11 -4 -16 10 -16 -47 -1 -70 18 -19 16
-19 16 -7 1 13 -17 2 -26 -13 -10 -8 7 -14 9 -47 11 -11 0 -18 5 -15 9 2 4 -5
9 -17 9 -18 2 -19 0 -7 -8 12 -9 11 -9 -5 -4 -11 4 -30 7 -42 6 -15 0 -23 5
-24 17 0 10 -3 12 -6 5 -6 -17 -38 -16 -52 0 -6 8 -9 16 -6 18 2 3 -5 5 -16 5
-19 0 -20 -1 -2 -14 16 -12 13 -13 -22 -6 -22 3 -46 11 -52 17 -9 6 -18 5 -28
-3 -8 -7 -15 -9 -15 -4 0 8 -47 13 -148 17 -16 1 -21 5 -17 16 4 11 0 10 -15
-4 -11 -10 -20 -13 -20 -7 0 6 -14 9 -32 8 -18 -2 -39 2 -47 8 -9 7 -12 7 -9
0 4 -6 -5 -9 -25 -7 -18 1 -48 3 -67 4 -19 1 -41 7 -49 13 -12 9 -13 8 -7 -2
6 -10 3 -13 -10 -10 -11 2 -18 11 -16 18 3 11 -1 10 -16 -3 -20 -19 -37 -23
-27 -7 3 6 2 10 -4 10 -5 0 -11 -6 -14 -12 -3 -9 -10 -7 -23 7 -10 11 -16 16
-11 11z"/>
<path d="M6850 9260 c0 -5 5 -10 11 -10 5 0 7 5 4 10 -3 6 -8 10 -11 10 -2 0
-4 -4 -4 -10z"/>
<path d="M6946 9222 c-3 -5 1 -9 9 -9 8 0 12 4 9 9 -3 4 -7 8 -9 8 -2 0 -6 -4
-9 -8z"/>
<path d="M7126 9118 c3 -5 10 -6 15 -3 13 9 11 12 -6 12 -8 0 -12 -4 -9 -9z"/>
<path d="M7336 9018 c3 -5 10 -6 15 -3 13 9 11 12 -6 12 -8 0 -12 -4 -9 -9z"/>
<path d="M7500 8926 c0 -2 8 -10 18 -17 15 -13 16 -12 3 4 -13 16 -21 21 -21
13z"/>
<path d="M7875 8651 c-3 -5 -2 -12 3 -15 5 -3 9 1 9 9 0 17 -3 19 -12 6z"/>
<path d="M7930 8601 c0 -6 4 -13 10 -16 6 -3 7 1 4 9 -7 18 -14 21 -14 7z"/>
<path d="M8070 8481 c0 -6 4 -13 10 -16 6 -3 7 1 4 9 -7 18 -14 21 -14 7z"/>
<path d="M1855 8320 c-3 -5 -1 -10 4 -10 6 0 11 5 11 10 0 6 -2 10 -4 10 -3 0
-8 -4 -11 -10z"/>
<path d="M8651 7853 c-1 -17 16 -25 25 -12 4 7 3 9 -4 5 -5 -3 -13 0 -15 6 -4
9 -6 10 -6 1z"/>
<path d="M8700 7781 c0 -6 4 -13 10 -16 6 -3 7 1 4 9 -7 18 -14 21 -14 7z"/>
<path d="M8945 7418 c9 -22 33 -30 41 -15 4 7 3 9 -1 4 -5 -4 -17 1 -27 10
-17 15 -18 15 -13 1z"/>
<path d="M9006 7322 c-3 -5 1 -9 9 -9 8 0 12 4 9 9 -3 4 -7 8 -9 8 -2 0 -6 -4
-9 -8z"/>
<path d="M9087 7179 c7 -7 15 -10 18 -7 3 3 -2 9 -12 12 -14 6 -15 5 -6 -5z"/>
<path d="M9235 6871 c-3 -5 -2 -12 3 -15 5 -3 9 1 9 9 0 17 -3 19 -12 6z"/>
<path d="M9373 6515 c0 -8 4 -12 9 -9 5 3 6 10 3 15 -9 13 -12 11 -12 -6z"/>
<path d="M9433 6332 c-1 -22 0 -24 9 -8 6 10 6 22 2 26 -5 5 -10 -3 -11 -18z"/>
<path d="M9440 6226 c0 -2 7 -7 16 -10 8 -3 12 -2 9 4 -6 10 -25 14 -25 6z"/>
<path d="M9516 5967 c3 -10 9 -15 12 -12 3 3 0 11 -7 18 -10 9 -11 8 -5 -6z"/>
<path d="M9550 5741 c0 -6 4 -13 10 -16 6 -3 7 1 4 9 -7 18 -14 21 -14 7z"/>
<path d="M527 5559 c7 -7 15 -10 18 -7 3 3 -2 9 -12 12 -14 6 -15 5 -6 -5z"/>
<path d="M9580 5386 c0 -2 8 -10 18 -17 15 -13 16 -12 3 4 -13 16 -21 21 -21
13z"/>
<path d="M9570 4660 c0 -5 5 -10 11 -10 5 0 7 5 4 10 -3 6 -8 10 -11 10 -2 0
-4 -4 -4 -10z"/>
<path d="M9246 3362 c-3 -5 1 -9 9 -9 8 0 12 4 9 9 -3 4 -7 8 -9 8 -2 0 -6 -4
-9 -8z"/>
<path d="M8775 2499 c-4 -6 -5 -12 -2 -15 2 -3 7 2 10 11 7 17 1 20 -8 4z"/>
<path d="M8576 2242 c-3 -4 4 -9 15 -9 23 -2 25 3 4 10 -8 4 -16 3 -19 -1z"/>
<path d="M7796 1467 c3 -10 9 -15 12 -12 3 3 0 11 -7 18 -10 9 -11 8 -5 -6z"/>
<path d="M6226 698 c3 -5 10 -6 15 -3 13 9 11 12 -6 12 -8 0 -12 -4 -9 -9z"/>
</g>
</svg>
